P3
3 4
255
15 255 0 0 255 0 255 0 0
0 0 0 255 250 250 0 0 244
0 255 0 123 0 0 0 0 200
0 0 0 0 0 0 0 0 1
